<svg width="60" height="60" viewBox="0 0 60 60" fill="none" xmlns="http://www.w3.org/2000/svg">
<mask id="mask0_230_10" style="mask-type:luminance" maskUnits="userSpaceOnUse" x="0" y="0" width="60" height="60">
<path d="M60 0H0V60H60V0Z" fill="white"/>
</mask>
<g mask="url(#mask0_230_10)">
<path d="M37.7492 47.3099C46.6308 46.3439 55.0037 41.7113 59.6141 33.9792C57.4308 53.1038 36.068 65.1918 18.6306 57.77C17.0237 57.0883 15.6407 55.9536 14.6915 54.4948C10.7729 48.4712 9.48468 40.8063 11.3356 33.8507C16.6238 42.7854 27.3766 48.262 37.7492 47.3099Z" fill="#F3B01C"/>
<path d="M11.0113 28.239C7.41128 36.383 7.25535 45.9182 11.669 53.7654C-3.86342 42.3258 -3.69392 17.846 11.4791 6.52114C12.8825 5.47441 14.5503 4.85314 16.2995 4.75859C23.4928 4.38718 30.8014 7.10864 35.9269 12.1802C25.5131 12.2815 15.3707 18.8117 11.0113 28.239Z" fill="#8D2676"/>
<path d="M40.9487 14.6862C35.6946 7.51452 27.4707 2.63209 18.4604 2.48353C35.8777 -5.25543 57.3016 7.29167 59.6336 25.8421C59.8506 27.5642 59.5659 29.3199 58.7863 30.8733C55.5322 37.3427 49.4981 42.36 42.4471 44.2172C47.6132 34.8374 46.9758 23.3774 40.9487 14.6862Z" fill="#EE342F"/>
</g>
</svg>
