<svg width="42" height="38" viewBox="0 0 42 38" fill="none" xmlns="http://www.w3.org/2000/svg">
<path d="M0 1.99943V3.99884H6.66207H13.3241V1.99943V9.6783e-06H6.66207H0V1.99943Z" fill="#96D324"/>
<path d="M14.4441 6.02046C14.531 14.318 14.3186 17.7282 13.5559 20.3274C13.3048 21.1494 12.4938 23.2154 12.3683 23.3265C12.3393 23.3598 12.1945 23.5598 12.0593 23.7708C11.3834 24.815 10.669 25.5148 9.70345 26.0813C8.76689 26.6255 8.62207 26.67 6.98069 26.9477L6.66207 27.0032V28.4139C6.66207 29.2914 6.62345 29.8802 6.55586 29.9579C6.37241 30.169 6.61379 30.2134 7.54069 30.0912C9.19172 29.8802 11.171 29.2581 11.7986 28.7583C11.9338 28.6361 12.0786 28.5472 12.1172 28.5472C12.1559 28.5472 12.4359 28.3695 12.7352 28.1584C13.3724 27.7141 14.1545 26.8699 14.5503 26.1923C14.7048 25.9369 15.0041 25.4148 15.2262 25.0482C15.9214 23.8597 16.5779 21.8936 16.8579 20.1608C17.36 17.1505 17.5434 13.4627 17.3793 9.83046C17.331 8.60859 17.2634 7.4867 17.2248 7.33119C17.1765 7.0646 17.1765 7.0646 17.4469 7.39784C17.8331 7.89769 18.3448 8.59749 18.9917 9.51944C19.3007 9.95265 20.0538 10.9857 20.6717 11.7966C22.371 14.0403 23.6359 15.7398 24.3021 16.6618C24.6303 17.1172 25.0359 17.6726 25.2097 17.8837C25.3834 18.0947 25.7503 18.5835 26.0207 18.95C27.2083 20.6162 28.8979 22.9044 29.5062 23.6709C29.8731 24.1263 30.3945 24.8261 30.6552 25.2037C31.1765 25.9591 31.8524 26.881 32.451 27.6253L32.8276 28.1029V33.0459V38L33.9669 37.9667L35.0965 37.9334L35.1255 22.549L35.1448 7.17568L35.5117 6.73137C35.7145 6.47589 35.589 6.57586 35.1931 6.97574C34.8262 7.35341 34.1407 8.10874 33.6772 8.66413L32.8276 9.66384L32.8083 16.0731L32.7793 22.4823L32.3352 21.8047C31.8717 21.0938 31.5048 20.594 30.1241 18.7834C29.6703 18.1836 29.0234 17.3061 28.6759 16.8284C28.3283 16.3508 27.8552 15.7065 27.6138 15.3844C27.3724 15.0734 26.8124 14.2958 26.3586 13.6627C25.9048 13.0406 25.4703 12.4741 25.3834 12.3964C25.2965 12.3297 24.9393 11.8521 24.5724 11.33C23.9062 10.3636 23.7807 10.197 22.5641 8.55306C22.1779 8.03099 21.5407 7.15346 21.1545 6.60918C20.7683 6.05379 20.1986 5.30956 19.8993 4.943C19.5903 4.57644 19.1945 4.05437 19.0303 3.77667C18.8565 3.49898 18.5186 3.02134 18.2676 2.72143C18.0165 2.41041 17.6593 1.93277 17.4759 1.65507C17.2924 1.37738 16.9352 0.88863 16.6841 0.57761L16.24 9.26666e-07H15.3131H14.3765L14.4441 6.02046Z" fill="#96D324"/>
<path d="M37.269 4.63198L36.2552 5.83163L36.2842 21.9047L36.3035 37.9889H39.1517H42V20.7162V3.44344H40.1366H38.2828L37.269 4.63198Z" fill="#96D324"/>
<path d="M0 20.6606C0 29.8135 0.0386207 35.8784 0.0868965 35.8784C0.183448 35.8784 2.24966 33.668 4.47034 31.1909L5.88965 29.6025V18.739V7.8866H9.6069H13.3241V6.66474V5.44287H6.66207H0V20.6606Z" fill="#96D324"/>
<path d="M18.4221 20.2941L18.3931 28.8249L18.1614 29.4914C17.8814 30.3134 17.0993 31.2464 16.5393 31.4241C16.2979 31.5019 14.3766 31.5463 11.0069 31.5463C5.13657 31.5463 5.81243 31.4353 4.73105 32.6016C4.38347 32.9792 3.80416 33.6013 3.4276 34.0012C2.53933 34.9342 0.531052 37.3002 0.280018 37.6779L0.0869141 37.9889H9.25933C16.0373 37.9889 18.5573 37.9556 18.9435 37.8556C19.3876 37.7445 19.5324 37.6334 20.0345 37.0003C20.3531 36.6004 21.0966 35.7007 21.6759 34.9898C22.8538 33.568 23.5393 32.7015 24.0221 32.0684L24.3311 31.6463V25.4814V19.3166L23.7324 18.4724C23.0566 17.5393 21.56 15.5621 21.3862 15.3844C21.3283 15.3177 20.9807 14.8623 20.6235 14.3625C20.0345 13.5294 18.5766 11.7743 18.4897 11.7743C18.4607 11.7743 18.4317 15.6065 18.4221 20.2941Z" fill="#96D324"/>
</svg>
